<svg width="41.953140" height="18.194000" viewBox="0 0 41.9531 18.194" fill="none" xmlns="http://www.w3.org/2000/svg" xmlns:xlink="http://www.w3.org/1999/xlink">
	<desc>
			Created with Pixso.
	</desc>
	<defs/>
	<path id="Gertc" d="M4.576 18.194C2.96267 18.194 1.79667 17.688 1.078 16.676C0.359334 15.6493 2.38419e-07 14.1313 2.38419e-07 12.122L2.38419e-07 6.16C2.38419e-07 4.78133 0.139334 3.652 0.418 2.772C0.711334 1.87733 1.20267 1.19533 1.892 0.725998C2.596 0.241999 3.55667 -1.90735e-06 4.774 -1.90735e-06C6.41667 -1.90735e-06 7.59733 0.417997 8.316 1.254C9.04933 2.09 9.416 3.40267 9.416 5.192L9.416 5.852L7.084 5.852L7.084 5.302C7.084 4.45133 7.03267 3.79867 6.93 3.344C6.82733 2.87467 6.60733 2.52266 6.27 2.288C5.94733 2.05333 5.46333 1.936 4.818 1.936C4.12867 1.936 3.61533 2.09733 3.278 2.42C2.94067 2.728 2.72067 3.146 2.618 3.674C2.53 4.202 2.486 4.906 2.486 5.786L2.486 12.386C2.486 13.75 2.64733 14.7327 2.97 15.334C3.30733 15.9207 3.94533 16.214 4.884 16.214C5.808 16.214 6.43867 15.8913 6.776 15.246C7.128 14.6007 7.304 13.5667 7.304 12.144L7.304 10.912L5.038 10.912L5.038 9.152L9.548 9.152L9.548 17.974L7.986 17.974L7.744 15.928C7.18667 17.4387 6.13067 18.194 4.576 18.194ZM15.4254 18.15C14.4428 18.15 13.6801 17.9667 13.1374 17.6C12.5948 17.2187 12.2134 16.6613 11.9934 15.928C11.7734 15.1947 11.6634 14.2413 11.6634 13.068L11.6634 10.164C11.6634 8.404 11.9348 7.12066 12.4774 6.314C13.0348 5.49267 14.0174 5.082 15.4254 5.082C16.4521 5.082 17.2221 5.29467 17.7354 5.72C18.2634 6.14533 18.6081 6.74667 18.7694 7.524C18.9454 8.28667 19.0334 9.32067 19.0334 10.626L19.0334 11.66L14.0174 11.66L14.0174 14.212C14.0174 14.9893 14.1274 15.554 14.3474 15.906C14.5821 16.2433 14.9488 16.412 15.4474 16.412C15.9461 16.412 16.2834 16.2433 16.4594 15.906C16.6354 15.554 16.7234 15.026 16.7234 14.322L16.7234 13.552L19.0114 13.552L19.0114 14.036C19.0114 15.3707 18.7254 16.39 18.1534 17.094C17.5814 17.798 16.6721 18.15 15.4254 18.15ZM16.7234 10.384L16.7234 9.24C16.7234 8.37466 16.6354 7.75867 16.4594 7.392C16.2981 7.01066 15.9461 6.82 15.4034 6.82C15.0221 6.82 14.7288 6.908 14.5234 7.084C14.3328 7.26 14.2008 7.55333 14.1274 7.964C14.0541 8.36 14.0174 8.93933 14.0174 9.702L14.0174 10.384L16.7234 10.384ZM21.2312 5.258L23.5852 5.258L23.5852 7.062C24.0252 6.34333 24.4725 5.83733 24.9272 5.544C25.3965 5.25066 25.8879 5.104 26.4012 5.104C26.5332 5.104 26.6579 5.11133 26.7752 5.126L26.7752 7.722C26.3059 7.546 25.8732 7.458 25.4772 7.458C25.0959 7.458 24.7512 7.55333 24.4432 7.744C24.1499 7.92 23.8639 8.23533 23.5852 8.69L23.5852 17.974L21.2312 17.974L21.2312 5.258ZM31.6216 18.15C29.7882 18.15 28.8716 17.138 28.8716 15.114L28.8716 6.82L27.5296 6.82L27.5296 5.258L28.8716 5.258L28.8716 1.54L31.2256 1.54L31.2256 5.258L33.2716 5.258L33.2716 6.82L31.2256 6.82L31.2256 14.96C31.2256 15.4733 31.3062 15.8327 31.4676 16.038C31.6289 16.2433 31.9369 16.346 32.3916 16.346C32.6849 16.346 32.9709 16.324 33.2496 16.28L33.2496 18.018C32.6629 18.106 32.1202 18.15 31.6216 18.15ZM38.4771 18.15C37.4798 18.15 36.7098 17.952 36.1671 17.556C35.6245 17.1453 35.2505 16.5807 35.0451 15.862C34.8545 15.1287 34.7591 14.2047 34.7591 13.09L34.7591 10.164C34.7591 9.02 34.8545 8.08133 35.0451 7.348C35.2505 6.61467 35.6245 6.05733 36.1671 5.676C36.7098 5.28 37.4798 5.082 38.4771 5.082C39.3865 5.082 40.0905 5.22867 40.5891 5.522C41.1025 5.81533 41.4545 6.25533 41.6451 6.842C41.8505 7.414 41.9531 8.162 41.9531 9.086L41.9531 9.834L39.8191 9.834L39.8191 9.064C39.8191 8.228 39.7238 7.64867 39.5331 7.326C39.3571 6.98867 39.0125 6.82 38.4991 6.82C38.1031 6.82 37.8098 6.908 37.6191 7.084C37.4285 7.26 37.2965 7.546 37.2231 7.942C37.1498 8.338 37.1131 8.91733 37.1131 9.68L37.1131 13.684C37.1131 14.4173 37.1571 14.982 37.2451 15.378C37.3331 15.7593 37.4725 16.0307 37.6631 16.192C37.8685 16.3387 38.1545 16.412 38.5211 16.412C39.0638 16.412 39.4158 16.236 39.5771 15.884C39.7385 15.5173 39.8191 14.96 39.8191 14.212L39.8191 13.178L41.9531 13.178L41.9531 14.058C41.9531 15.4367 41.6965 16.4633 41.1831 17.138C40.6845 17.8127 39.7825 18.15 38.4771 18.15Z" fill="#162B6F" fill-opacity="1.000000" fill-rule="evenodd"/>
</svg>
